<svg xmlns="http://www.w3.org/2000/svg" viewBox="0 0 1280 720" role="img" aria-label="Bull Boulder — charging bull mark">
  <!-- Apr 24 — "just the bull" variant. Requested by Mason: homepage card
       should show only the white-background / black bull silhouette instead
       of the full BULL BOULDER TOW HITCHES poster. -->
  <rect width="1280" height="720" fill="#ffffff"/>

  <!-- Charging bull silhouette, facing right, head down. -->
  <g fill="#0a0a0a" fill-rule="evenodd">
    <path d="
      M 180 430
      C 210 405, 250 395, 290 400
      C 310 380, 335 360, 370 345
      C 410 332, 455 328, 500 335
      C 540 340, 578 345, 615 340
      C 655 335, 692 330, 730 340
      C 768 350, 800 370, 828 395
      C 855 418, 875 445, 895 470
      C 910 488, 930 500, 955 502
      C 975 504, 995 500, 1010 490
      C 1020 484, 1030 490, 1028 502
      C 1025 515, 1015 524, 1002 528
      C 1012 538, 1018 552, 1014 565
      C 1010 578, 996 582, 984 578
      C 970 574, 958 566, 948 556
      C 930 565, 910 565, 893 558
      C 888 578, 888 600, 892 622
      C 894 636, 885 648, 870 648
      L 840 648
      C 826 648, 818 636, 820 622
      L 830 560
      C 810 556, 792 548, 776 538
      C 760 548, 740 554, 720 556
      C 700 558, 680 556, 662 550
      L 620 548
      L 608 590
      C 604 608, 590 620, 572 620
      L 552 620
      C 538 620, 530 608, 532 594
      L 546 538
      C 520 528, 498 512, 480 492
      L 462 498
      C 440 506, 415 508, 392 502
      C 380 500, 370 510, 372 522
      L 378 548
      C 380 560, 372 572, 360 572
      C 348 572, 340 562, 340 550
      L 336 506
      C 316 496, 298 482, 284 464
      L 256 470
      C 236 472, 216 466, 200 454
      C 188 446, 180 440, 180 430 Z
      M 870 400
      C 882 382, 898 368, 918 360
      C 940 352, 962 352, 982 360
      C 998 366, 1008 380, 1006 396
      C 1005 404, 998 408, 990 406
      L 970 400
      C 960 398, 948 400, 940 408
      C 935 413, 928 414, 922 411
      L 878 408
      C 872 407, 868 404, 870 400 Z
      M 198 430
      C 186 416, 178 398, 174 378
      C 172 368, 170 355, 176 348
      C 182 340, 195 342, 200 352
      C 208 368, 214 384, 222 398
      C 225 402, 230 402, 234 400
      C 238 398, 243 400, 243 406
      C 240 418, 234 428, 224 434
      C 216 438, 206 438, 198 430 Z" />
  </g>

  <!-- Eye (small white dot) -->
  <circle cx="946" cy="402" r="4" fill="#ffffff"/>
</svg>
